<svg width="32" height="33" viewBox="0 0 32 33" fill="none" xmlns="http://www.w3.org/2000/svg">
<path d="M16 0.46875C11.6533 0.46875 11.1107 0.48875 9.404 0.56475C7.7 0.64475 6.54 0.91275 5.52 1.30875C4.468 1.71675 3.57467 2.26475 2.68533 3.15408C1.796 4.04342 1.24667 4.93542 0.84 5.98875C0.444 7.00875 0.174667 8.16875 0.096 9.87275C0.016 11.5795 0 12.122 0 16.4688C0 20.8155 0.02 21.3581 0.096 23.0648C0.176 24.7675 0.444 25.9287 0.84 26.9487C1.248 27.9994 1.796 28.894 2.68533 29.7834C3.57467 30.6714 4.46667 31.222 5.52 31.6287C6.54133 32.0234 7.70133 32.294 9.404 32.3727C11.1107 32.4527 11.6533 32.4688 16 32.4688C20.3467 32.4688 20.8893 32.4487 22.596 32.3727C24.2987 32.2927 25.46 32.0234 26.48 31.6287C27.5307 31.2207 28.4253 30.6714 29.3147 29.7834C30.2027 28.894 30.7533 28.0034 31.16 26.9487C31.5547 25.9287 31.8253 24.7675 31.904 23.0648C31.984 21.3581 32 20.8155 32 16.4688C32 12.122 31.98 11.5795 31.904 9.87275C31.824 8.17008 31.5547 7.00742 31.16 5.98875C30.752 4.93675 30.2027 4.04342 29.3147 3.15408C28.4253 2.26475 27.5347 1.71542 26.48 1.30875C25.46 0.91275 24.2987 0.643417 22.596 0.56475C20.8893 0.48475 20.3467 0.46875 16 0.46875ZM16 3.34875C20.2707 3.34875 20.78 3.37008 22.4667 3.44342C24.0267 3.51675 24.8733 3.77542 25.436 3.99675C26.1853 4.28608 26.716 4.63275 27.2787 5.19142C27.8373 5.75142 28.184 6.28342 28.4733 7.03275C28.692 7.59542 28.9533 8.44208 29.024 10.0021C29.1 11.6901 29.1173 12.1968 29.1173 16.4688C29.1173 20.7407 29.0973 21.2487 29.0187 22.9354C28.9373 24.4954 28.6773 25.3421 28.4573 25.9048C28.1587 26.6541 27.8187 27.1847 27.2587 27.7474C26.7 28.306 26.16 28.6528 25.4187 28.9421C24.8587 29.1608 23.9987 29.4221 22.4387 29.4928C20.74 29.5688 20.24 29.5861 15.96 29.5861C11.6787 29.5861 11.1787 29.566 9.48133 29.4874C7.92 29.406 7.06 29.1461 6.5 28.9261C5.74133 28.6275 5.22 28.2874 4.66133 27.7274C4.1 27.1687 3.74133 26.6287 3.46133 25.8874C3.24133 25.3274 2.98267 24.4674 2.90133 22.9074C2.84133 21.2274 2.82 20.7087 2.82 16.4487C2.82 12.1874 2.84133 11.6674 2.90133 9.96742C2.98267 8.40742 3.24133 7.54875 3.46133 6.98875C3.74133 6.22875 4.1 5.70875 4.66133 5.14742C5.22 4.58875 5.74133 4.22875 6.5 3.95008C7.06 3.72875 7.90133 3.46875 9.46133 3.38875C11.1613 3.32875 11.6613 3.30875 15.94 3.30875L16 3.34875ZM16 8.25275C11.46 8.25275 7.784 11.9328 7.784 16.4688C7.784 21.0087 11.464 24.6847 16 24.6847C20.54 24.6847 24.216 21.0047 24.216 16.4688C24.216 11.9288 20.536 8.25275 16 8.25275ZM16 21.802C13.0533 21.802 10.6667 19.4155 10.6667 16.4688C10.6667 13.522 13.0533 11.1355 16 11.1355C18.9467 11.1355 21.3333 13.522 21.3333 16.4688C21.3333 19.4155 18.9467 21.802 16 21.802ZM26.4613 7.92875C26.4613 8.98875 25.6 9.84875 24.5413 9.84875C23.4813 9.84875 22.6213 8.98742 22.6213 7.92875C22.6213 6.87008 23.4827 6.01008 24.5413 6.01008C25.5987 6.00875 26.4613 6.87008 26.4613 7.92875Z" fill="white"/>
</svg>
