<svg width="32" height="33" viewBox="0 0 32 33" fill="none" xmlns="http://www.w3.org/2000/svg">
<path d="M31.3307 8.71665C31.1499 8.03568 30.7934 7.41416 30.2968 6.91433C29.8003 6.4145 29.1811 6.0539 28.5013 5.86865C26.0067 5.19531 16 5.19531 16 5.19531C16 5.19531 5.99333 5.19531 3.49733 5.86865C2.81788 6.05423 2.19906 6.41496 1.70277 6.91475C1.20648 7.41455 0.850122 8.0359 0.669333 8.71665C0 11.2287 0 16.4687 0 16.4687C0 16.4687 0 21.7087 0.669333 24.2207C0.850115 24.9017 1.20663 25.5232 1.70319 26.023C2.19974 26.5228 2.8189 26.8834 3.49867 27.0687C5.99333 27.742 16 27.742 16 27.742C16 27.742 26.0067 27.742 28.5027 27.0687C29.1825 26.8836 29.8017 26.523 30.2983 26.0232C30.7949 25.5233 31.1513 24.9017 31.332 24.2207C32 21.7087 32 16.4687 32 16.4687C32 16.4687 32 11.2287 31.3307 8.71665ZM12.7267 21.226V11.7114L21.0907 16.4687L12.7267 21.226Z" fill="white"/>
</svg>
