<svg width="136" height="31" fill="none" xmlns="http://www.w3.org/2000/svg"><path d="M5.04 12.784c.648-.93 1.536-1.686 2.664-2.267 1.152-.582 2.46-.872 3.924-.872 1.704 0 3.24.407 4.608 1.22 1.392.814 2.484 1.977 3.276 3.488.816 1.488 1.224 3.22 1.224 5.196 0 1.977-.408 3.732-1.224 5.267-.792 1.51-1.884 2.685-3.276 3.522-1.368.837-2.904 1.255-4.608 1.255-1.488 0-2.796-.279-3.924-.837-1.104-.58-1.992-1.325-2.664-2.232v2.755H0V3.473h5.04v9.312Zm10.548 6.765c0-1.162-.252-2.162-.756-2.999-.48-.86-1.128-1.511-1.944-1.953a5.232 5.232 0 0 0-2.592-.662c-.912 0-1.776.232-2.592.697-.792.442-1.44 1.093-1.944 1.953-.48.86-.72 1.872-.72 3.034 0 1.163.24 2.174.72 3.034.504.86 1.152 1.523 1.944 1.988.816.442 1.68.663 2.592.663.936 0 1.8-.233 2.592-.698.816-.465 1.464-1.127 1.944-1.988.504-.86.756-1.883.756-3.069ZM26.954 7.657c-.888 0-1.632-.267-2.232-.802-.576-.558-.864-1.244-.864-2.058 0-.813.288-1.488.864-2.022.6-.558 1.344-.837 2.232-.837.888 0 1.62.278 2.196.837.6.534.9 1.208.9 2.022 0 .814-.3 1.5-.9 2.058-.576.535-1.308.802-2.196.802Zm2.484 2.302v19.32h-5.04V9.96h5.04Zm16.788 19.32-6.768-8.23v8.23h-5.04V3.473h5.04v14.682l6.696-8.195h6.552l-8.784 9.695 8.856 9.625h-6.552Zm6.919-9.66c0-2 .42-3.743 1.26-5.231.84-1.511 2.004-2.674 3.492-3.488 1.488-.837 3.192-1.255 5.112-1.255 2.472 0 4.512.604 6.12 1.813 1.632 1.186 2.724 2.86 3.276 5.022H66.97c-.288-.837-.78-1.488-1.476-1.953-.672-.488-1.512-.732-2.52-.732-1.44 0-2.58.511-3.42 1.534-.84 1-1.26 2.43-1.26 4.29 0 1.837.42 3.267 1.26 4.29.84 1 1.98 1.5 3.42 1.5 2.04 0 3.372-.884 3.996-2.651h5.436c-.552 2.092-1.644 3.755-3.276 4.987-1.632 1.232-3.672 1.848-6.12 1.848-1.92 0-3.624-.407-5.112-1.22a9.01 9.01 0 0 1-3.492-3.488c-.84-1.511-1.26-3.266-1.26-5.266h-.001Zm26.993-6.661a7.03 7.03 0 0 1 2.52-2.406c1.056-.582 2.256-.872 3.6-.872v5.126h-1.332c-1.584 0-2.784.36-3.6 1.082-.792.72-1.188 1.976-1.188 3.766v9.625h-5.04V9.96h5.04v2.999Zm21.574 13.566c-.552.884-1.452 1.628-2.7 2.232-1.248.582-2.592.872-4.032.872-1.248 0-2.376-.244-3.384-.732s-1.8-1.163-2.376-2.023c-.576-.86-.864-1.848-.864-2.964 0-1.79.684-3.255 2.052-4.394 1.392-1.14 3.468-1.71 6.228-1.71h5.076c-.048-1.232-.42-2.208-1.116-2.929-.672-.744-1.608-1.116-2.808-1.116-1.056 0-1.932.28-2.628.837-.696.535-1.14 1.29-1.332 2.267h-5.04c.24-1.395.756-2.639 1.548-3.732.809-1.11 1.9-1.999 3.168-2.58 1.32-.628 2.796-.942 4.428-.942 1.68 0 3.192.337 4.536 1.011a7.608 7.608 0 0 1 3.204 2.895c.768 1.255 1.152 2.732 1.152 4.43v11.333h-5.112v-2.755Zm-5.256-.837c.84 0 1.656-.174 2.448-.523a4.897 4.897 0 0 0 2.016-1.57c.528-.697.792-1.522.792-2.475v-.14h-4.788c-1.152 0-2.016.221-2.592.663-.552.442-.828 1.023-.828 1.744 0 .697.252 1.255.756 1.674.528.418 1.26.627 2.196.627Zm20.997-11.718v15.31h-5.112V13.97h-2.268V9.96h2.268v-.977c0-2.371.696-4.115 2.088-5.231 1.392-1.116 3.492-1.64 6.3-1.57v4.116c-1.224-.023-2.076.174-2.556.593-.48.418-.72 1.174-.72 2.267v.802h6.55V5.18h5.076v4.778h4.464v4.01h-4.464v9.347c0 .65.156 1.128.468 1.43.336.279.888.418 1.656.418h2.34v4.115h-3.168c-4.248 0-6.372-1.999-6.372-5.998v-9.312h-6.55Z" fill="#fff"/></svg>